<?xml version="1.0" encoding="UTF-8"?>
<svg version="1.1" xmlns="http://www.w3.org/2000/svg" width="2000" height="2000">
<path d="M0 0 C660 0 1320 0 2000 0 C2000 660 2000 1320 2000 2000 C1340 2000 680 2000 0 2000 C0 1340 0 680 0 0 Z " fill="#FEFEFE" transform="translate(0,0)"/>
<path d="M0 0 C2.1171856 -0.00967304 4.23338353 -0.04079766 6.3503418 -0.07226562 C16.2268579 -0.14752386 25.30109519 1.11019748 34.94995117 3.24023438 C35.96895508 3.45252686 36.98795898 3.66481934 38.0378418 3.88354492 C66.80770523 10.05444808 94.67571847 25.22838929 116.94995117 44.24023438 C117.7569043 44.92472656 118.56385742 45.60921875 119.39526367 46.31445312 C180.84852646 99.96565591 207.6801718 186.78810869 233.94995117 261.24023438 C234.30357727 262.24244019 234.65720337 263.244646 235.02154541 264.27722168 C239.00086884 275.55925953 242.97036112 286.84474379 246.93484497 298.13200378 C251.75083399 311.84272658 256.59253938 325.54413844 261.44995117 339.24023438 C267.43065721 356.10738956 273.38739064 372.98284228 279.32495117 389.86523438 C279.91708405 391.5488205 279.91708405 391.5488205 280.5211792 393.26641846 C283.73441064 402.40312948 286.94633097 411.5403013 290.15820312 420.67749023 C292.96317714 428.65695238 295.76866278 436.63623438 298.57495117 444.61523438 C298.96986755 445.73810852 299.36478394 446.86098267 299.77166748 448.0178833 C305.6550574 464.74370518 311.56295118 481.46071071 317.48947144 498.17129517 C322.4115419 512.05038166 327.30864637 525.93803734 332.18847656 539.83203125 C335.74784659 549.96584012 339.31714311 560.09614696 342.88806152 570.22589111 C343.87983913 573.04121017 344.86978846 575.85716429 345.85913086 578.67333984 C361.21822283 622.35801175 378.05401022 665.46400584 397.64282227 707.43798828 C398.50074272 709.27721334 399.35534761 711.11798936 400.20629883 712.96044922 C406.16227286 725.85207592 412.65169906 738.36756904 419.57299805 750.76708984 C420.78893048 752.95102523 421.99007208 755.14205689 423.18432617 757.33789062 C444.01135658 795.38342826 469.59174625 831.43368358 497.94995117 864.24023438 C498.62928711 865.03300781 499.30862305 865.82578125 500.00854492 866.64257812 C511.2994915 879.51821896 523.42373902 891.91400797 537.28198242 902.02099609 C538.96778904 903.25327336 540.63089823 904.51229993 542.29370117 905.77539062 C574.64615895 930.00241855 617.42244931 945.45611538 657.88745117 945.42773438 C658.97413086 945.42765381 660.06081055 945.42757324 661.18041992 945.42749023 C670.14893267 945.3649896 678.94121557 944.66812088 687.82885742 943.51025391 C691.53051634 943.03902523 695.24056786 942.6454918 698.94995117 942.24023438 C699.27995117 945.54023437 699.60995117 948.84023437 699.94995117 952.24023438 C687.15038112 956.52790006 674.3265222 960.00580628 661.07495117 962.55273438 C659.83028076 962.79459473 658.58561035 963.03645508 657.30322266 963.28564453 C640.93155939 966.33458346 624.96871406 967.65911073 608.32495117 967.61523438 C607.40008911 967.61336121 606.47522705 967.61148804 605.52233887 967.60955811 C550.15159821 967.36707072 498.93884753 941.50178176 457.94995117 905.24023438 C456.66411133 904.10328125 456.66411133 904.10328125 455.35229492 902.94335938 C452.87007357 900.72470193 450.40772257 898.48593305 447.94995117 896.24023438 C446.94881143 895.33250321 445.94750164 894.42495957 444.94604492 893.51757812 C437.24238276 886.52028624 429.7503695 879.44869785 422.97338867 871.53710938 C420.98139785 869.2759306 418.91888632 867.09287178 416.84301758 864.90893555 C409.77730871 857.43301103 403.57839039 849.43886442 397.43139648 841.20068359 C395.4088533 838.52418034 393.29642448 835.92154934 391.19995117 833.30273438 C371.96911743 808.28701568 356.54014143 780.11288254 341.94995117 752.24023438 C341.44109375 751.26924805 340.93223633 750.29826172 340.40795898 749.29785156 C314.34187384 699.21041703 295.79503669 645.7186304 277.76831055 592.35058594 C272.27450818 576.09147731 266.67777187 559.87140896 260.98364258 543.68139648 C257.94751768 535.04076049 254.95328508 526.38653512 252.02416992 517.70898438 C251.71655228 516.80772827 251.40893463 515.90647217 251.09199524 514.97790527 C250.81139755 514.1408606 250.53079987 513.30381592 250.24169922 512.44140625 C249.99179733 511.70144409 249.74189545 510.96148193 249.48442078 510.19909668 C248.94995117 508.24023438 248.94995117 508.24023438 248.94995117 505.24023438 C114.30995117 505.73523437 114.30995117 505.73523437 -23.05004883 506.24023438 C-36.81290652 541.37948578 -36.81290652 541.37948578 -50.48754883 576.55273438 C-51.26765622 578.56668319 -52.04785139 580.580598 -52.828125 582.59448242 C-54.43141107 586.73277852 -56.03434227 590.87121177 -57.63696289 595.00976562 C-61.30673336 604.4858142 -64.98019908 613.96042992 -68.65386963 623.43496704 C-69.84931029 626.51858579 -71.04421378 629.60241223 -72.23901367 632.6862793 C-75.90777021 642.15341296 -79.58456421 651.61723997 -83.28442383 661.07226562 C-83.94096906 662.7521773 -84.59746463 664.43210838 -85.25390625 666.11206055 C-86.45373812 669.18260344 -87.65752545 672.25155149 -88.86376953 675.31958008 C-89.39607689 676.68108895 -89.92823171 678.04265747 -90.46020508 679.40429688 C-90.91532471 680.56396973 -91.37044434 681.72364258 -91.83935547 682.91845703 C-96.03087206 694.41871409 -97.35033335 707.22804347 -92.37817383 718.74804688 C-87.22869557 728.41089138 -80.90408653 736.49809524 -70.42504883 740.42773438 C-62.47572446 742.34146061 -54.18649389 742.67083306 -46.05004883 743.24023438 C-46.05004883 746.54023437 -46.05004883 749.84023437 -46.05004883 753.24023438 C-111.72004883 753.24023438 -177.39004883 753.24023438 -245.05004883 753.24023438 C-245.05004883 749.94023438 -245.05004883 746.64023438 -245.05004883 743.24023438 C-243.50317383 743.15386719 -241.95629883 743.0675 -240.36254883 742.97851562 C-213.72193715 741.27595239 -189.84090029 733.24973063 -170.97583008 713.44726562 C-157.8943499 698.45530558 -150.2310451 681.60135511 -142.80004883 663.36523438 C-141.92752091 661.24478383 -141.05396434 659.12475629 -140.17944336 657.00512695 C-138.3663755 652.60839723 -136.55770233 648.20989908 -134.75219727 643.81005859 C-130.92752719 634.4989901 -127.05065186 625.20974176 -123.17370605 615.92034912 C-121.91889436 612.91298416 -120.66541652 609.90506662 -119.41235352 606.89697266 C-113.6057768 592.958865 -107.77956959 579.02904272 -101.94500732 565.10263062 C-95.96256191 550.82241758 -90.00152368 536.53338056 -84.05004883 522.24023438 C-77.36591272 506.18751857 -70.66493804 490.1419969 -63.94555664 474.10400391 C-57.96293407 459.82333069 -52.00171314 445.53383557 -46.05004883 431.24023438 C-39.36591272 415.18751857 -32.66493804 399.1419969 -25.94555664 383.10400391 C-19.96293407 368.82333069 -14.00171314 354.53383557 -8.05004883 340.24023438 C-1.36591272 324.18751857 5.33506196 308.1419969 12.05444336 292.10400391 C18.03706593 277.82333069 23.99828686 263.53383557 29.94995117 249.24023438 C36.26785177 234.06707495 42.59904425 218.8996082 48.94995117 203.74023438 C56.22629333 186.36922863 63.49870219 168.99651098 70.72412109 151.60424805 C71.13426956 150.61702255 71.54441803 149.62979706 71.96699524 148.61265564 C72.78176607 146.65147827 73.59645411 144.6902665 74.41105652 142.72901917 C76.68787182 137.25366517 78.98300094 131.78659529 81.29953003 126.32792664 C82.64990562 123.14257818 83.99075509 119.95327415 85.32995605 116.76321411 C85.94446331 115.30652462 86.56358099 113.85177019 87.18762207 112.3991394 C88.03303382 110.43036637 88.86237382 108.45555293 89.68823242 106.47851562 C90.38493042 104.83943237 90.38493042 104.83943237 91.09570312 103.16723633 C92.02985659 99.96644586 91.99361772 98.37556734 90.94995117 95.24023438 C89.51057655 93.06118112 88.07880396 91.07731253 86.44995117 89.05273438 C85.9978125 88.48031006 85.54567383 87.90788574 85.07983398 87.31811523 C80.91239566 82.09277751 76.54977443 77.09043681 71.94995117 72.24023438 C71.46606934 71.71848633 70.9821875 71.19673828 70.48364258 70.65917969 C44.96997962 43.27288182 10.02958651 25.21596683 -27.61694336 23.03344727 C-56.29233011 22.2750997 -83.07533556 25.88304663 -110.11694336 35.70703125 C-112.05004883 36.24023438 -112.05004883 36.24023438 -116.05004883 36.24023438 C-116.71004883 32.94023438 -117.37004883 29.64023437 -118.05004883 26.24023438 C-100.92780238 19.60378258 -83.85049018 13.8010218 -66.05004883 9.24023438 C-65.12466309 8.99934082 -64.19927734 8.75844727 -63.24584961 8.51025391 C-42.40956742 3.12652024 -21.5361224 0.05913133 0 0 Z " fill="#010101" transform="translate(784.050048828125,549.759765625)"/>
<path d="M0 0 C32.90907111 39.65440866 45.38648117 111.60183771 61.52636719 159.68969727 C65.46066914 171.40971908 69.42861654 183.11775896 73.4375 194.8125 C74.49257634 197.89309613 75.5472027 200.97384606 76.6015625 204.0546875 C76.86457153 204.82310471 77.12758057 205.59152191 77.39855957 206.38322449 C81.39232788 218.0603363 85.34929412 229.74999008 89.3125 241.4375 C90.11846914 243.81380902 90.92445866 246.19011112 91.73046875 248.56640625 C93.34477137 253.32583116 94.95903157 258.08527045 96.57324219 262.84472656 C97.17332092 264.61402527 97.17332092 264.61402527 97.78552246 266.41906738 C98.59781908 268.81415447 99.41007468 271.20925547 100.22229004 273.60437012 C102.58909921 280.58355638 104.95707468 287.5623448 107.32675171 294.54055786 C108.05816628 296.69509293 108.78915468 298.84977272 109.51968384 301.00460815 C110.53154332 303.98912745 111.54489712 306.97313553 112.55859375 309.95703125 C112.84944855 310.81606049 113.14030334 311.67508972 113.43997192 312.56015015 C115.27793606 317.96383492 117.2189167 323.31793199 119.24598694 328.65385437 C120 331 120 331 120 334 C37.5 334 -45 334 -130 334 C-126.62518012 322.75060041 -126.62518012 322.75060041 -125.07739258 318.83374023 C-124.55363792 317.49938683 -124.55363792 317.49938683 -124.01930237 316.13807678 C-123.6481279 315.20434738 -123.27695343 314.27061798 -122.89453125 313.30859375 C-122.49842148 312.30239487 -122.10231171 311.29619598 -121.69419861 310.25950623 C-120.40392335 306.98406186 -119.10816617 303.71081514 -117.8125 300.4375 C-116.90676234 298.1403197 -116.00149457 295.84295408 -115.09667969 293.54541016 C-113.26646499 288.89840068 -111.43473264 284.25199401 -109.60205078 279.60595703 C-105.96176823 270.37124384 -102.3541504 261.12386003 -98.75 251.875 C-98.10006837 250.20823164 -97.45008465 248.54148359 -96.80004883 246.87475586 C-95.51168132 243.57120431 -94.22352961 240.26756876 -92.93554688 236.96386719 C-89.96023521 229.33270888 -86.98198307 221.70269796 -84.00402832 214.0725708 C-82.33590564 209.79842473 -80.66796161 205.52420893 -79 201.25 C-78.33333419 199.54166633 -77.66666753 197.833333 -77 196.125 C-76.67 195.279375 -76.34 194.43375 -76 193.5625 C-64.33333333 163.66666667 -52.66666667 133.77083333 -41 103.875 C-40.67003021 103.02945053 -40.34006042 102.18390106 -40.00009155 101.31272888 C-39.33312488 99.60363059 -38.66615303 97.89453432 -37.99917603 96.18544006 C-36.33705718 91.92632705 -34.6750269 87.66717952 -33.01318359 83.40795898 C-29.95909157 75.58074082 -26.9042367 67.75382364 -23.84623718 59.9281311 C-22.44822458 56.35039888 -21.05059912 52.77251551 -19.65310669 49.19458008 C-18.97245323 47.45202318 -18.29168902 45.70950953 -17.61080933 43.96704102 C-14.32138191 35.54761703 -11.03838792 27.12610393 -7.80859375 18.68359375 C-7.3379248 17.45374756 -6.86725586 16.22390137 -6.38232422 14.95678711 C-5.52843087 12.72033207 -4.6770258 10.48292473 -3.82861328 8.24438477 C-3.46364746 7.28717529 -3.09868164 6.32996582 -2.72265625 5.34375 C-2.25484741 4.10915039 -2.25484741 4.10915039 -1.77758789 2.84960938 C-1 1 -1 1 0 0 Z " fill="#FDFDFD" transform="translate(902,691)"/>
<path d="M0 0 C1.5361496 -0.01444153 1.5361496 -0.01444153 3.10333252 -0.0291748 C23.07164989 -0.18994193 42.72226228 1.67182778 62.25 5.9375 C63.40765869 6.18983398 64.56531738 6.44216797 65.75805664 6.70214844 C101.54774094 14.89963587 134.67847845 32.03693705 161.3125 57.3125 C161.7854248 57.75819336 162.25834961 58.20388672 162.74560547 58.66308594 C174.25174816 69.57388964 183.4347367 81.50462628 191.3125 95.3125 C191.85173096 96.24739258 191.85173096 96.24739258 192.40185547 97.20117188 C202.25364987 114.4514288 209.10160282 132.91695646 213.3125 152.3125 C213.54098633 153.29589355 213.76947266 154.27928711 214.00488281 155.29248047 C218.1676722 173.77154758 218.7948921 191.92568935 218.8125 210.8125 C218.81690094 211.95264557 218.82130188 213.09279114 218.82583618 214.26748657 C218.84958945 229.02516863 217.90685191 243.34447295 215.67044067 257.93377686 C215.3296152 260.19875961 215.02372843 262.46527152 214.73217773 264.73706055 C208.68488113 310.36276522 181.07819761 359.24847529 144.74316406 387.53417969 C104.8182686 417.85659008 52.58702863 429.69810349 3.0625 423.1875 C-4.70600661 422.06069926 -12.29091199 420.32488436 -19.875 418.3125 C-20.8144043 418.0635498 -21.75380859 417.81459961 -22.72167969 417.55810547 C-23.59083008 417.31205566 -24.45998047 417.06600586 -25.35546875 416.8125 C-26.50438599 416.48765625 -26.50438599 416.48765625 -27.67651367 416.15625 C-31.38647803 414.59965939 -32.45138902 412.86408017 -34.0378418 409.15795898 C-34.49648026 407.8780311 -34.94558482 406.59465965 -35.38671875 405.30859375 C-35.74658623 404.28995995 -35.74658623 404.28995995 -36.11372375 403.25074768 C-36.61769945 401.81905349 -37.11754874 400.38590091 -37.61352539 398.95141602 C-38.37451048 396.7514152 -39.14801859 394.55613971 -39.92382812 392.36132812 C-40.41219452 390.96900801 -40.89984946 389.57643809 -41.38671875 388.18359375 C-41.61791916 387.52524033 -41.84911957 386.8668869 -42.08732605 386.18858337 C-43.6875 381.5463453 -43.6875 381.5463453 -43.6875 379.3125 C-42.470625 379.725 -41.25375 380.1375 -40 380.5625 C-38.23013072 381.14875183 -36.45917959 381.73174196 -34.6875 382.3125 C-33.66269531 382.64894531 -32.63789062 382.98539063 -31.58203125 383.33203125 C-29.96361328 383.84830078 -29.96361328 383.84830078 -28.3125 384.375 C-27.31476563 384.69597656 -26.31703125 385.01695312 -25.2890625 385.34765625 C-16.43373747 387.71996133 -8.0307987 388.62051968 1.125 388.5 C2.70365845 388.48706909 2.70365845 388.48706909 4.31420898 388.47387695 C40.58749644 388.05764901 73.87560337 377.02919047 99.81640625 350.88623047 C114.01487045 335.95096607 122.77599699 317.24212195 130.3125 298.3125 C131.05306641 296.49492188 131.05306641 296.49492188 131.80859375 294.640625 C147.45115408 253.90174515 147.72386253 202.69177108 139.3125 160.3125 C139.12526367 159.34683105 138.93802734 158.38116211 138.74511719 157.38623047 C133.59273465 131.61986841 123.59307613 106.37935795 106.3125 86.3125 C105.18714844 84.98025391 105.18714844 84.98025391 104.0390625 83.62109375 C82.91262418 59.34422165 52.68928134 42.78837509 21.3125 36.3125 C20.4359375 36.12768066 19.559375 35.94286133 18.65625 35.75244141 C-8.95929795 30.15251659 -37.34456015 30.65693546 -64.9921875 35.66210938 C-69.16441705 36.39643942 -73.34457706 37.05731561 -77.53125 37.703125 C-79.11271362 37.9474966 -80.69417518 38.19188155 -82.27563477 38.4362793 C-83.07413849 38.55965668 -83.87264221 38.68303406 -84.69534302 38.81015015 C-102.92228274 41.64097486 -121.11555436 44.68063729 -139.3046875 47.7434082 C-142.4317815 48.26948038 -145.55960943 48.79118491 -148.6875 49.3125 C-149.0175 62.5125 -149.3475 75.7125 -149.6875 89.3125 C-151.98805528 86.24509296 -153.45048289 83.95282164 -155 80.55859375 C-155.42982178 79.63135498 -155.85964355 78.70411621 -156.30249023 77.7487793 C-156.98807007 76.26438354 -156.98807007 76.26438354 -157.6875 74.75 C-165.66538234 57.81444873 -175.14607171 42.17972995 -185.76049805 26.77685547 C-186.6875 25.3125 -186.6875 25.3125 -186.6875 24.3125 C-183.77612305 23.82727051 -180.86474609 23.34204102 -177.95336914 22.85681152 C-177.21497803 22.73374634 -176.47658691 22.61068115 -175.71582031 22.48388672 C-174.12304688 22.21842448 -172.53027344 21.95296224 -170.9375 21.6875 C-169.73401917 21.48691986 -169.73401917 21.48691986 -168.50622559 21.2822876 C-166.85040283 21.00631714 -165.19458008 20.73034668 -163.53875732 20.45437622 C-162.70096741 20.31474457 -161.86317749 20.17511292 -161 20.03125 C-158.41113281 19.59977214 -155.82226562 19.16829427 -153.23339844 18.73681641 C-152.39325195 18.59679199 -151.55310547 18.45676758 -150.6875 18.3125 C-145.95605469 17.52392578 -141.22460938 16.73535156 -136.49316406 15.94677734 C-135.36255554 15.75834259 -135.36255554 15.75834259 -134.20910645 15.56610107 C-131.93603516 15.18725586 -131.93603516 15.18725586 -129.66296387 14.80841064 C-128.91792603 14.68423767 -128.17288818 14.5600647 -127.40527344 14.43212891 C-126.67020569 14.30961761 -125.93513794 14.18710632 -125.17779541 14.06088257 C-124.45396667 13.94024445 -123.73013794 13.81960632 -122.984375 13.6953125 C-121.56445312 13.45865885 -120.14453125 13.22200521 -118.72460938 12.98535156 C-118.04712646 12.87243774 -117.36964355 12.75952393 -116.67163086 12.64318848 C-111.51025391 11.78295898 -106.34887695 10.92272949 -101.1875 10.0625 C-100.28161133 9.91151855 -99.37572266 9.76053711 -98.44238281 9.60498047 C-96.72780299 9.31921717 -95.01320379 9.03357014 -93.29858398 8.74804688 C-91.46981398 8.44299538 -89.64121468 8.13691955 -87.81274414 7.83007812 C-58.41916785 2.90600146 -29.79575883 0.15655599 0 0 Z " fill="#010101" transform="translate(1162.6875,594.6875)"/>
<path d="M0 0 C18.15 0 36.3 0 55 0 C67.42943665 27.34476064 66.29009577 53.53665618 65.9753418 83.13787842 C65.87537471 93.5055941 65.86572302 103.87382303 65.85257149 114.24194145 C65.84012401 117.82938321 65.80426566 121.41596303 65.7641449 125.00318909 C65.75110838 127.21314246 65.73847801 129.42309827 65.72631836 131.63305664 C65.70060005 133.09897751 65.70060005 133.09897751 65.67436218 134.59451294 C65.64150823 150.62784467 71.64760827 165.37935397 82.8203125 176.890625 C83.53960938 177.58671875 84.25890625 178.2828125 85 179 C85.57492187 179.57234375 86.14984375 180.1446875 86.7421875 180.734375 C96.16383176 189.4798247 108.80104304 194.56978425 121.4375 195.8125 C127.47992218 196.54050267 127.47992218 196.54050267 129.77734375 198.5703125 C131.44078481 201.39993822 132 203.73309562 132 207 C63.36 207 -5.28 207 -76 207 C-76 203.7 -76 200.4 -76 197 C-74.06060547 196.94392578 -74.06060547 196.94392578 -72.08203125 196.88671875 C-51.13319516 196.15758938 -32.70631072 192.13664899 -17.55078125 176.7734375 C-7.3681927 165.70201657 -0.93531435 152.05538938 -0.84178162 136.84963989 C-0.8319928 135.63816788 -0.82220398 134.42669586 -0.81211853 133.17851257 C-0.80636307 131.86292862 -0.8006076 130.54734467 -0.79467773 129.19189453 C-0.78508989 127.78215758 -0.77507928 126.37242345 -0.76467896 124.96269226 C-0.737722 121.14707165 -0.71666279 117.33143879 -0.69667697 113.51577616 C-0.67476038 109.52391248 -0.64739953 105.53208617 -0.62062073 101.54025269 C-0.57077037 93.98624716 -0.52580324 86.4322208 -0.48259836 78.87817466 C-0.43316042 70.27599799 -0.37826667 61.67385882 -0.32291877 53.07171845 C-0.20921631 35.38117895 -0.10307202 17.69060485 0 0 Z " fill="#020202" transform="translate(948,1096)"/>
<path d="M0 0 C1.69896538 2.54844807 2.56386225 4.31266959 3.51220703 7.1484375 C3.7923465 7.97939941 4.07248596 8.81036133 4.3611145 9.66650391 C4.65702484 10.56030762 4.95293518 11.45411133 5.2578125 12.375 C5.56572723 13.29587402 5.87364197 14.21674805 6.19088745 15.16552734 C6.84024756 17.11156714 7.48733746 19.05836572 8.13232422 21.00585938 C9.12187163 23.99056411 10.12097311 26.97194887 11.12109375 29.953125 C11.7505773 31.84355787 12.37950252 33.73417676 13.0078125 35.625 C13.3077713 36.51880371 13.6077301 37.41260742 13.91677856 38.33349609 C14.19061371 39.16445801 14.46444885 39.99541992 14.74658203 40.8515625 C14.98925812 41.58197754 15.2319342 42.31239258 15.48196411 43.06494141 C16 45 16 45 16 48 C10.72 48 5.44 48 0 48 C0 32.16 0 16.32 0 0 Z " fill="#151515" transform="translate(948,936)"/>
</svg>
